<mxfile host="app.diagrams.net" modified="2023-12-26T16:39:34.666Z" agent="Mozilla/5.0 (Windows NT 10.0; Win64; x64) AppleWebKit/537.36 (KHTML, like Gecko) Chrome/120.0.0.0 Safari/537.36 Edg/120.0.0.0" etag="AaPuua6D7Z9dZB2JRm7a" version="22.1.11" type="device">
  <diagram name="Strona-1" id="Z7k_HgdfxxMh0LVAu4SG">
    <mxGraphModel dx="956" dy="1692" grid="1" gridSize="10" guides="1" tooltips="1" connect="1" arrows="1" fold="1" page="1" pageScale="1" pageWidth="827" pageHeight="1169" math="0" shadow="0">
      <root>
        <mxCell id="0" />
        <mxCell id="1" parent="0" />
        <mxCell id="icKrlmhLPhg03cUmOQ2n-21" value="Aplikacja klienta (Angular)" style="verticalAlign=top;align=left;spacingTop=8;spacingLeft=2;spacingRight=12;shape=cube;size=10;direction=south;fontStyle=0;html=1;whiteSpace=wrap;strokeColor=#666666;fillColor=#f5f5f5;fontColor=#333333;" vertex="1" parent="1">
          <mxGeometry x="70" y="-20" width="370" height="250" as="geometry" />
        </mxCell>
        <mxCell id="icKrlmhLPhg03cUmOQ2n-79" value="&amp;nbsp; &amp;nbsp; &amp;nbsp; Rdzeń aplikacji" style="rounded=1;whiteSpace=wrap;html=1;align=left;verticalAlign=top;dashed=1;" vertex="1" parent="1">
          <mxGeometry x="100" y="30" width="160" height="180" as="geometry" />
        </mxCell>
        <mxCell id="icKrlmhLPhg03cUmOQ2n-81" value="Moduł główny&lt;br&gt;&lt;i&gt;AppModule&lt;/i&gt;" style="rounded=0;whiteSpace=wrap;html=1;fillColor=#fad9d5;strokeColor=#ae4132;" vertex="1" parent="1">
          <mxGeometry x="130" y="70" width="100" height="50" as="geometry" />
        </mxCell>
        <mxCell id="icKrlmhLPhg03cUmOQ2n-85" style="edgeStyle=orthogonalEdgeStyle;rounded=0;orthogonalLoop=1;jettySize=auto;html=1;exitX=0.5;exitY=0;exitDx=0;exitDy=0;entryX=0.5;entryY=1;entryDx=0;entryDy=0;" edge="1" parent="1" source="icKrlmhLPhg03cUmOQ2n-82" target="icKrlmhLPhg03cUmOQ2n-81">
          <mxGeometry relative="1" as="geometry" />
        </mxCell>
        <mxCell id="icKrlmhLPhg03cUmOQ2n-82" value="Moduł &lt;i&gt;shared&lt;/i&gt;" style="rounded=0;whiteSpace=wrap;html=1;fillColor=#bac8d3;strokeColor=#23445d;" vertex="1" parent="1">
          <mxGeometry x="130" y="160" width="100" height="30" as="geometry" />
        </mxCell>
        <mxCell id="icKrlmhLPhg03cUmOQ2n-91" style="edgeStyle=orthogonalEdgeStyle;rounded=0;orthogonalLoop=1;jettySize=auto;html=1;exitX=0;exitY=0.5;exitDx=0;exitDy=0;entryX=1;entryY=0.25;entryDx=0;entryDy=0;" edge="1" parent="1" source="icKrlmhLPhg03cUmOQ2n-86" target="icKrlmhLPhg03cUmOQ2n-81">
          <mxGeometry relative="1" as="geometry">
            <Array as="points">
              <mxPoint x="280" y="45" />
              <mxPoint x="280" y="83" />
            </Array>
          </mxGeometry>
        </mxCell>
        <mxCell id="icKrlmhLPhg03cUmOQ2n-86" value="Moduł &lt;i&gt;client&lt;/i&gt;" style="rounded=0;whiteSpace=wrap;html=1;fillColor=#fff2cc;strokeColor=#d6b656;" vertex="1" parent="1">
          <mxGeometry x="300" y="30" width="100" height="30" as="geometry" />
        </mxCell>
        <mxCell id="icKrlmhLPhg03cUmOQ2n-90" style="edgeStyle=orthogonalEdgeStyle;rounded=0;orthogonalLoop=1;jettySize=auto;html=1;exitX=0;exitY=0.5;exitDx=0;exitDy=0;entryX=1;entryY=0.5;entryDx=0;entryDy=0;" edge="1" parent="1" source="icKrlmhLPhg03cUmOQ2n-87" target="icKrlmhLPhg03cUmOQ2n-81">
          <mxGeometry relative="1" as="geometry">
            <Array as="points">
              <mxPoint x="290" y="95" />
              <mxPoint x="290" y="95" />
            </Array>
          </mxGeometry>
        </mxCell>
        <mxCell id="icKrlmhLPhg03cUmOQ2n-87" value="Moduł &lt;i&gt;auth&lt;/i&gt;" style="rounded=0;whiteSpace=wrap;html=1;fillColor=#fff2cc;strokeColor=#d6b656;" vertex="1" parent="1">
          <mxGeometry x="300" y="80" width="100" height="30" as="geometry" />
        </mxCell>
        <mxCell id="icKrlmhLPhg03cUmOQ2n-89" style="edgeStyle=orthogonalEdgeStyle;rounded=0;orthogonalLoop=1;jettySize=auto;html=1;exitX=0;exitY=0.5;exitDx=0;exitDy=0;entryX=1;entryY=0.75;entryDx=0;entryDy=0;" edge="1" parent="1" source="icKrlmhLPhg03cUmOQ2n-88" target="icKrlmhLPhg03cUmOQ2n-81">
          <mxGeometry relative="1" as="geometry">
            <Array as="points">
              <mxPoint x="280" y="145" />
              <mxPoint x="280" y="107" />
            </Array>
          </mxGeometry>
        </mxCell>
        <mxCell id="icKrlmhLPhg03cUmOQ2n-88" value="Moduł &lt;i&gt;settings&lt;/i&gt;" style="rounded=0;whiteSpace=wrap;html=1;fillColor=#fff2cc;strokeColor=#d6b656;" vertex="1" parent="1">
          <mxGeometry x="300" y="130" width="100" height="30" as="geometry" />
        </mxCell>
      </root>
    </mxGraphModel>
  </diagram>
</mxfile>
